<svg xmlns="http://www.w3.org/2000/svg" width="34" height="34" viewBox="0 0 34 34">
  <path fill="#20CACE" d="M447.020662,251.979338 C440.381545,245.340221 429.618455,245.340221 422.979338,251.979338 C416.340221,258.618455 416.340221,269.381545 422.979338,276.020662 C429.618455,282.659779 440.381545,282.659779 447.020662,276.020662 C453.659779,269.381545 453.659779,258.618455 447.020662,251.979338 Z M443.488621,261.029064 C443.102295,261.416371 442.711529,261.80813 442.325203,262.195438 C440.628922,263.896028 438.937082,265.592167 437.240801,267.292757 C436.175075,268.356739 435.113789,269.425173 434.052503,270.489155 C433.373103,271.170282 432.218566,271.170282 431.539166,270.489155 C431.330461,270.27992 431.121756,270.070685 430.917492,269.86145 C429.447678,268.38345 427.977864,266.909902 426.50805,265.431902 C425.806447,264.728516 425.855293,263.624468 426.50805,262.912179 C427.156367,262.204341 428.36419,262.253311 429.021388,262.912179 C429.230092,263.121414 429.438797,263.330649 429.643061,263.539883 C430.695466,264.594962 431.747871,265.654492 432.795835,266.70957 C434.461032,265.040143 436.121788,263.375167 437.786985,261.705739 L440.975283,258.509341 C441.676886,257.805955 442.778136,257.854925 443.488621,258.509341 C444.194664,259.163757 444.145818,260.370197 443.488621,261.029064 Z" transform="translate(-418 -247)"/>
</svg>
